<svg xmlns="http://www.w3.org/2000/svg" xmlns:xlink="http://www.w3.org/1999/xlink" xmlns:inkscape="http://www.inkscape.org/namespaces/inkscape" version="1.1" width="841.89" height="595.276" viewBox="0 0 841.89 595.276">
<defs>
<clipPath id="clip_1">
<path transform="matrix(1,0,0,-1,0,595.276)" d="M0 595.276H841.89V0H0Z"/>
</clipPath>
</defs>
<g inkscape:groupmode="layer" inkscape:label="katman 1">
<g clip-path="url(#clip_1)">
<path transform="matrix(1,0,0,-1,550.3418,311.2258)" d="M0 0C0-103.651-57.932-187.676-129.397-187.676-200.86-187.676-258.794-103.651-258.794 0-258.794 103.65-200.86 187.676-129.397 187.676-57.932 187.676 0 103.65 0 0" fill="#e95a50"/>
<path transform="matrix(1,0,0,-1,542.9085,311.8901)" d="M0 0C0-99.622-54.605-180.381-121.963-180.381-189.322-180.381-243.927-99.622-243.927 0-243.927 99.621-189.322 180.381-121.963 180.381-54.605 180.381 0 99.621 0 0" fill="#e1e7ee"/>
<path transform="matrix(1,0,0,-1,489.7193,314.2155)" d="M0 0C0-56.222-30.791-101.798-68.775-101.798-106.757-101.798-137.549-56.222-137.549 0-137.549 56.221-106.757 101.798-68.775 101.798-30.791 101.798 0 56.221 0 0" fill="#2e5896"/>
<path transform="matrix(1,0,0,-1,408.836,405.08039)" d="M0 0C-.761 .127-1.521 .266-2.278 .417-1.802 2.813-1.326 5.21-.85 7.607-1.73 7.104-2.732 6.815-3.839 6.753-3.702 7.325-3.565 7.897-3.427 8.469-2.859 8.503-2.21 8.679-1.498 9.002-.786 9.325-.263 9.775 .079 10.338 .611 10.235 1.145 10.139 1.68 10.05 1.12 6.7 .56 3.35 0 0" fill="#ffffff"/>
<path transform="matrix(1,0,0,-1,417.8473,399.4339)" d="M0 0C.031 .627-.099 1.12-.385 1.484-.671 1.846-1.008 2.042-1.405 2.071-1.783 2.099-2.107 1.982-2.384 1.722-2.658 1.461-2.829 1.01-2.889 .367-2.949-.286-2.853-.778-2.596-1.109-2.338-1.439-1.992-1.621-1.562-1.652-1.148-1.682-.788-1.556-.489-1.276-.19-.998-.028-.571 0 0M-5.261-3.815C-4.535-3.832-3.81-3.838-3.087-3.834-3.068-4.221-2.956-4.516-2.748-4.718-2.538-4.921-2.249-5.038-1.878-5.065-1.412-5.099-1.002-4.939-.657-4.589-.311-4.238-.067-3.483 .077-2.325-.497-2.866-1.21-3.11-2.039-3.046-2.942-2.977-3.693-2.594-4.272-1.911-4.849-1.227-5.066-.391-4.944 .589-4.819 1.611-4.39 2.392-3.689 2.949-2.986 3.506-2.165 3.742-1.196 3.672-.141 3.597 .699 3.163 1.365 2.344 2.028 1.527 2.363 .214 2.335-1.608 2.306-3.463 1.895-4.798 1.063-5.594 .233-6.388-.857-6.751-2.167-6.653-3.109-6.583-3.853-6.299-4.383-5.819-4.912-5.338-5.203-4.667-5.261-3.815" fill="#ffffff"/>
<path transform="matrix(1,0,0,-1,424.0523,402.649)" d="M0 0C.024-.632 .207-1.115 .558-1.443 .909-1.772 1.306-1.924 1.739-1.898 2.158-1.873 2.497-1.709 2.754-1.407 3.01-1.106 3.11-.634 3.06 .005 3.006 .663 2.823 1.133 2.514 1.417 2.205 1.703 1.839 1.832 1.411 1.807 .999 1.783 .657 1.62 .383 1.314 .107 1.009-.021 .572 0 0M4.535 4.577C3.875 4.437 3.214 4.307 2.549 4.186 2.469 4.569 2.321 4.845 2.104 5.014 1.885 5.184 1.617 5.259 1.292 5.239 .861 5.213 .505 5.012 .221 4.63-.064 4.248-.227 3.474-.268 2.303 .244 2.894 .878 3.208 1.657 3.257 2.534 3.312 3.308 3.068 4.001 2.512 4.694 1.958 5.104 1.203 5.212 .229 5.325-.803 5.07-1.671 4.415-2.364 3.763-3.057 2.856-3.448 1.721-3.515 .504-3.585-.518-3.218-1.303-2.436-2.092-1.654-2.47-.347-2.474 1.466-2.479 3.326-2.11 4.665-1.408 5.499-.704 6.335 .193 6.773 1.318 6.842 2.106 6.89 2.776 6.729 3.337 6.347 3.899 5.965 4.301 5.378 4.535 4.577" fill="#ffffff"/>
<path transform="matrix(1,0,0,-1,434.7144,401.11933)" d="M0 0C-.214 1.136-.428 2.272-.642 3.408-1.252 2.117-1.905 .833-2.602-.441-1.733-.31-.865-.163 0 0M.695-3.687C.569-3.018 .443-2.349 .317-1.68-1.26-1.978-2.845-2.223-4.434-2.416-4.503-1.853-4.571-1.289-4.64-.726-3.254 1.607-2.02 3.979-.94 6.374-.388 6.48 .162 6.594 .712 6.714 1.171 4.618 1.631 2.522 2.09 .426 2.556 .528 3.02 .635 3.484 .746 3.617 .192 3.75-.362 3.883-.917 3.408-1.031 2.933-1.14 2.457-1.244 2.602-1.909 2.748-2.574 2.894-3.239 2.163-3.399 1.429-3.549 .695-3.687" fill="#ffffff"/>
<path transform="matrix(1,0,0,-1,398.5071,460.1176)" d="M0 0V10.274H-3.914V11.648H5.502V10.274H1.572V0Z" fill="#030404"/>
<path transform="matrix(1,0,0,-1,405.6544,460.1176)" d="M0 0V11.648H8.589V10.274H1.573V6.706C3.763 6.706 5.953 6.706 8.144 6.706V5.34H1.573V1.375H8.865V0Z" fill="#030404"/>
<path transform="matrix(1,0,0,-1,416.7727,460.1176)" d="M0 0V11.648C2.672 11.648 5.343 11.648 8.015 11.648V10.274C5.867 10.274 3.72 10.274 1.572 10.274V6.667C3.431 6.667 5.289 6.667 7.147 6.667V5.292C5.289 5.292 3.431 5.292 1.572 5.292V0Z" fill="#030404"/>
<path transform="matrix(1,0,0,-1,426.8615,460.1176)" d="M0 0V11.648H8.59V10.274H1.572V6.706C3.763 6.706 5.954 6.706 8.145 6.706V5.34H1.572V1.375H8.865C8.865 .917 8.865 .458 8.865 0Z" fill="#030404"/>
<path transform="matrix(1,0,0,-1,441.2942,460.1176)" d="M0 0-4.603 11.648H-2.901C-1.872 8.828-.843 6.007 .186 3.187 .435 2.508 .642 1.872 .81 1.279 .995 1.915 1.208 2.55 1.45 3.187 2.52 6.007 3.59 8.828 4.659 11.648H6.264C4.713 7.766 3.163 3.883 1.612 0Z" fill="#030404"/>
<path transform="matrix(1,0,0,-1,406.3802,439.78663)" d="M0 0H4.027C3.614 1.076 3.201 2.151 2.788 3.227 2.41 4.206 2.128 5.012 1.945 5.642 1.793 4.896 1.58 4.153 1.305 3.417 .87 2.278 .435 1.139 0 0M-3.428-4.783C-1.907-.9-.386 2.982 1.135 6.865 1.699 6.865 2.264 6.865 2.828 6.865 4.448 2.982 6.069-.9 7.689-4.783 7.092-4.783 6.495-4.783 5.898-4.783 5.437-3.607 4.975-2.431 4.514-1.255H-.454C-.889-2.431-1.324-3.607-1.759-4.783-2.315-4.783-2.871-4.783-3.428-4.783" fill="#030404"/>
<path transform="matrix(1,0,0,-1,0,595.276)" d="M421.25 164.699H422.773V163.07H421.25ZM418.228 164.699H419.751V163.07H418.228ZM416.469 156.356C416.469 154.952 416.853 153.846 417.624 153.038 418.394 152.23 419.359 151.826 420.521 151.826 421.705 151.826 422.677 152.235 423.443 153.05 424.206 153.866 424.59 155.024 424.589 156.523 424.59 157.471 424.425 158.299 424.099 159.006 423.772 159.713 423.293 160.261 422.664 160.651 422.035 161.041 421.329 161.235 420.545 161.235 419.432 161.235 418.475 160.859 417.672 160.111 416.87 159.361 416.469 158.109 416.469 156.356M414.849 156.38C414.848 158.314 415.379 159.827 416.437 160.921 417.496 162.015 418.862 162.561 420.537 162.562 421.634 162.562 422.623 162.305 423.503 161.791 424.383 161.277 425.055 160.561 425.517 159.642 425.98 158.723 426.208 157.68 426.209 156.515 426.208 155.333 425.967 154.276 425.481 153.344 424.995 152.412 424.305 151.706 423.414 151.227 422.523 150.747 421.561 150.508 420.529 150.508 419.41 150.508 418.411 150.773 417.531 151.302 416.65 151.832 415.982 152.555 415.53 153.472 415.076 154.388 414.848 155.358 414.849 156.38" fill="#030404"/>
<path transform="matrix(1,0,0,-1,429.808,443.1948)" d="M0 0C.845 0 1.691 0 2.536 0 3.319 0 3.935 .071 4.38 .214 4.826 .357 5.181 .558 5.445 .818 5.819 1.184 6.109 1.675 6.316 2.292 6.525 2.909 6.629 3.657 6.629 4.537 6.629 5.755 6.424 6.691 6.016 7.346 5.61 8 5.113 8.438 4.53 8.661 4.108 8.819 3.431 8.899 2.496 8.899H0ZM-1.572-1.375V10.273C-.208 10.273 1.156 10.273 2.52 10.273 3.444 10.273 4.148 10.219 4.635 10.107 5.316 9.953 5.896 9.675 6.378 9.272 7.004 8.754 7.472 8.09 7.783 7.282 8.095 6.475 8.248 5.551 8.249 4.513 8.248 3.628 8.145 2.845 7.934 2.161 7.723 1.478 7.452 .912 7.123 .465 6.794 .017 6.433-.335 6.041-.593 5.649-.85 5.176-1.044 4.623-1.177 4.069-1.309 3.432-1.375 2.715-1.375 1.286-1.375-.143-1.375-1.572-1.375" fill="#030404"/>
<path transform="matrix(1,0,0,-1,375.888,310.0243)" d="M0 0C0 0 7.002 32.665 38.169 36.208L38.281-23.917C38.281-23.917 40.431-28.536 49.525-28.643 49.525-28.643 50.764-28.643 51.02-28.485L50.929 36.43C50.929 36.43 81.644 34.879 90.114 0 90.114 0 92.824 55.696 36.249 49.717 36.249 49.717-1.016 44.623 0 0" fill="#a8813d"/>
<path transform="matrix(1,0,0,-1,399.4342,284.8292)" d="M0 0C0 0 4.449 4.289 11.654 4.335L12.025-52.213C12.025-52.213 28.625-68.158 60.469-45.901 60.469-45.901 43.192-84.269 .168-64.503Z" fill="#a8813d"/>
<path transform="matrix(1,0,0,-1,449.6842,311.6297)" d="M0 0C0 0-3.45 3.431-10.056 5.867L-10.107 6.312-10.146 18.639C-10.146 18.639-4.406 17.675 9.768 5.647 9.768 5.647 .507 29.675-19.931 31.059L-20.016-26.895C-20.016-26.895-14.12-27.877-10.446-25.246L-10.372-.017" fill="#a8813d"/>
</g>
<text fill="#231f20" xml:space="preserve" transform="matrix(-.07761619 -.9580329 1.036999 -.084012959 0 595.276)" font-size="27.482668" font-family="VYPCIH+TimesNewRomanPS-BoldMT" font-weight="bold"><tspan y="346.06785" x="234.35063">A</tspan></text>
<text fill="#231f20" xml:space="preserve" transform="matrix(.021202479 -.9609376 1.040144 .022949035 0 595.276)" font-size="27.482638" font-family="VYPCIH+TimesNewRomanPS-BoldMT" font-weight="bold"><tspan y="320.14317" x="290.8194">N</tspan></text>
<text fill="#231f20" xml:space="preserve" transform="matrix(.12544997 -.95294967 1.0314974 .13579104 0 595.276)" font-size="27.48267" font-family="VYPCIH+TimesNewRomanPS-BoldMT" font-weight="bold"><tspan y="287.0556" x="345.9428">K</tspan></text>
<text fill="#231f20" xml:space="preserve" transform="matrix(.23444584 -.93213978 1.0089736 .2537707 0 595.276)" font-size="27.482682" font-family="VYPCIH+TimesNewRomanPS-BoldMT" font-weight="bold"><tspan y="246.08843" x="400.12986">A</tspan></text>
<text fill="#231f20" xml:space="preserve" transform="matrix(.34567643 -.8968608 .9707839 .37417079 0 595.276)" font-size="27.482638" font-family="VYPCIH+TimesNewRomanPS-BoldMT" font-weight="bold"><tspan y="197.26999" x="448.5891">R</tspan></text>
<text fill="#231f20" xml:space="preserve" transform="matrix(.4650833 -.8411576 .91049239 .5034203 0 595.276)" font-size="27.482604" font-family="VYPCIH+TimesNewRomanPS-BoldMT" font-weight="bold"><tspan y="136.24317" x="492.57374">A</tspan></text>
<text fill="#231f20" xml:space="preserve" transform="matrix(.5411083 -.79438796 .85986557 .585711 0 595.276)" font-size="27.482668" font-family="VYPCIH+TimesNewRomanPS-BoldMT" font-weight="bold"><tspan y="92.09459" x="521.93588"> </tspan></text>
<text fill="#231f20" xml:space="preserve" transform="matrix(.63656219 -.72016409 .7795253 .68903538 0 595.276)" font-size="27.482626" font-family="VYPCIH+TimesNewRomanPS-BoldMT" font-weight="bold"><tspan y="29.621903" x="536.52658">&#x00d6;</tspan></text>
<text fill="#231f20" xml:space="preserve" transform="matrix(.784583 -.5552308 .6009942 .84925296 0 595.276)" font-size="27.482626" font-family="VYPCIH+TimesNewRomanPS-BoldMT" font-weight="bold"><tspan y="-89.18822" x="549.33578">&#x011e;</tspan></text>
<text fill="#231f20" xml:space="preserve" transform="matrix(.90732088 -.3172072 .34335459 .9821062 0 595.276)" font-size="27.48267" font-family="VYPCIH+TimesNewRomanPS-BoldMT" font-weight="bold"><tspan y="-231.0275" x="520.6898">R</tspan></text>
<text fill="#231f20" xml:space="preserve" transform="matrix(.9603876 -.038831768 .042033789 1.0395466 0 595.276)" font-size="27.482653" font-family="VYPCIH+TimesNewRomanPS-BoldMT" font-weight="bold"><tspan y="-366.35585" x="442.81126">E</tspan></text>
<text fill="#231f20" xml:space="preserve" transform="matrix(.9319378 .23525043 -.25464086 1.0087537 0 595.276)" font-size="27.482628" font-family="VYPCIH+TimesNewRomanPS-BoldMT" font-weight="bold"><tspan y="-471.9928" x="328.38359">T</tspan></text>
<text fill="#231f20" xml:space="preserve" transform="matrix(.86135455 .42651645 -.46167318 .9323557 0 595.276)" font-size="27.482645" font-family="VYPCIH+TimesNewRomanPS-BoldMT" font-weight="bold"><tspan y="-528.4358" x="230.19947">&#x0130;</tspan></text>
<text fill="#231f20" xml:space="preserve" transform="matrix(.74132999 .6117863 -.66221097 .80243399 0 595.276)" font-size="27.482634" font-family="VYPCIH+TimesNewRomanPS-BoldMT" font-weight="bold"><tspan y="-565.902" x="102.884189">M</tspan></text>
<text fill="#231f20" xml:space="preserve" transform="matrix(.6271447 .7283794 -.788421 .6788391 0 595.276)" font-size="27.482653" font-family="VYPCIH+TimesNewRomanPS-BoldMT" font-weight="bold"><tspan y="-577.02969" x="22.62262"> </tspan></text>
<text fill="#231f20" xml:space="preserve" transform="matrix(.53724846 .7970016 -.86269769 .58153459 0 595.276)" font-size="27.48263" font-family="VYPCIH+TimesNewRomanPS-BoldMT" font-weight="bold"><tspan y="-576.5414" x="-44.655946">D</tspan></text>
<text fill="#231f20" xml:space="preserve" transform="matrix(.41690634 .86604759 -.9374344 .4512698 0 595.276)" font-size="27.482672" font-family="VYPCIH+TimesNewRomanPS-BoldMT" font-weight="bold"><tspan y="-567.10488" x="-115.09749">E</tspan></text>
<text fill="#231f20" xml:space="preserve" transform="matrix(.30525438 .9114113 -.9865351 .3304157 0 595.276)" font-size="27.482653" font-family="VYPCIH+TimesNewRomanPS-BoldMT" font-weight="bold"><tspan y="-551.4471" x="-173.42206">R</tspan></text>
<text fill="#231f20" xml:space="preserve" transform="matrix(.19649127 .94087377 -1.0184245 .21268694 0 595.276)" font-size="27.482647" font-family="VYPCIH+TimesNewRomanPS-BoldMT" font-weight="bold"><tspan y="-531.00619" x="-222.93772">N</tspan></text>
<text fill="#231f20" xml:space="preserve" transform="matrix(.0970321 .9562613 -1.0350819 .10502987 0 595.276)" font-size="27.482657" font-family="VYPCIH+TimesNewRomanPS-BoldMT" font-weight="bold"><tspan y="-508.4054" x="-262.5783">E</tspan></text>
<text fill="#231f20" xml:space="preserve" transform="matrix(-.010519367 .96111217 -1.0403367 -.011389007 0 595.276)" font-size="27.482642" font-family="VYPCIH+TimesNewRomanPS-BoldMT" font-weight="bold"><tspan y="-480.10166" x="-304.81059">&#x011e;</tspan></text>
<text fill="#231f20" xml:space="preserve" transform="matrix(-.08262318 .95761308 -1.0365466 -.08943476 0 595.276)" font-size="27.482604" font-family="VYPCIH+TimesNewRomanPS-BoldMT" font-weight="bold"><tspan y="-458.9633" x="-321.99143">&#x0130;</tspan></text>
</g>
</svg>
